<svg width="24" height="25" viewBox="0 0 24 25" fill="none" xmlns="http://www.w3.org/2000/svg">
<path fill-rule="evenodd" clip-rule="evenodd" d="M5 5.21289C5.41421 5.21289 5.75 5.54868 5.75 5.96289L5.75 19.9629C5.75 20.3771 5.41421 20.7129 5 20.7129C4.58579 20.7129 4.25 20.3771 4.25 19.9629L4.25 5.96289C4.25 5.54868 4.58579 5.21289 5 5.21289Z" fill="black"/>
<path fill-rule="evenodd" clip-rule="evenodd" d="M10 5.21289C10.4142 5.21289 10.75 5.54868 10.75 5.96289L10.75 19.9629C10.75 20.3771 10.4142 20.7129 10 20.7129C9.58579 20.7129 9.25 20.3771 9.25 19.9629L9.25 5.96289C9.25 5.54868 9.58579 5.21289 10 5.21289Z" fill="black"/>
<path fill-rule="evenodd" clip-rule="evenodd" d="M20 5.21289C20.4142 5.21289 20.75 5.54868 20.75 5.96289V19.9629C20.75 20.3771 20.4142 20.7129 20 20.7129C19.5858 20.7129 19.25 20.3771 19.25 19.9629L19.25 5.96289C19.25 5.54868 19.5858 5.21289 20 5.21289Z" fill="black"/>
<path fill-rule="evenodd" clip-rule="evenodd" d="M15 5.21289C15.4142 5.21289 15.75 5.54868 15.75 5.96289L15.75 19.9629C15.75 20.3771 15.4142 20.7129 15 20.7129C14.5858 20.7129 14.25 20.3771 14.25 19.9629L14.25 5.96289C14.25 5.54868 14.5858 5.21289 15 5.21289Z" fill="black"/>
</svg>
